<?xml version='1.0' encoding='utf-8'?>
<svg xmlns:xlink="http://www.w3.org/1999/xlink" xmlns="http://www.w3.org/2000/svg" width="210mm" height="297mm" version="1.1" viewBox="0 0 210 297"> <defs> <linearGradient id="linearGradient4514"> <stop offset="0"/> <stop stop-color="#c0c4cf" offset="1"/> </linearGradient> <linearGradient id="linearGradient4505" x1="97.274" x2="99.18" y1="-5.7636" y2="-5.674" gradientTransform="translate(-.64229 149.93)" gradientUnits="userSpaceOnUse"> <stop stop-color="#c5cdd6" offset="0"/> <stop stop-color="#576272" offset="1"/> </linearGradient> <linearGradient id="linearGradient4516" x1="132.73" x2="101.92" y1="-24.584" y2="-22.435" gradientTransform="translate(-1.1489 148.92)" gradientUnits="userSpaceOnUse" xlink:href="#linearGradient4514"/> <filter id="filter4622" x="-.033721" y="-.0091547" width="1.0674" height="1.0183" color-interpolation-filters="sRGB"> <feGaussianBlur stdDeviation="0.54865175"/> </filter> <linearGradient id="linearGradient4644" x1="107.47" x2="123.06" y1="-33.63" y2="-30.048" gradientTransform="translate(-21.927 149.81)" gradientUnits="userSpaceOnUse"> <stop stop-color="#dadcdd" offset="0"/> <stop stop-color="#a5b4c7" offset=".14811"/> <stop stop-color="#a6b5c8" offset=".89196"/> <stop stop-color="#acb0bb" offset="1"/> </linearGradient> <filter id="filter4675" x="-.012493" y="-.055567" width="1.025" height="1.1111" color-interpolation-filters="sRGB"> <feGaussianBlur stdDeviation="0.21295147"/> </filter> <filter id="filter4689" x="-.022781" y="-.056079" width="1.0456" height="1.1122" color-interpolation-filters="sRGB"> <feGaussianBlur stdDeviation="0.28132707"/> </filter> <filter id="filter4704" x="-.20398" y="-.019023" width="1.408" height="1.038" color-interpolation-filters="sRGB"> <feGaussianBlur stdDeviation="0.86737808"/> </filter> <filter id="filter4724" x="-.006457" y="-.084771" width="1.0129" height="1.1695" color-interpolation-filters="sRGB"> <feGaussianBlur stdDeviation="0.88248045"/> </filter> <filter id="filter4728" x="-.0075784" y="-.028808" width="1.0152" height="1.0576" color-interpolation-filters="sRGB"> <feGaussianBlur stdDeviation="0.27821726"/> </filter> <filter id="filter4732" x="-.060316" y="-.0066628" width="1.1206" height="1.0133" color-interpolation-filters="sRGB"> <feGaussianBlur stdDeviation="0.060479487"/> </filter> <filter id="filter4769" x="-.0078184" y="-.091025" width="1.0156" height="1.182" color-interpolation-filters="sRGB"> <feGaussianBlur stdDeviation="0.072164417"/> </filter> <filter id="filter4784" x="-.015236" y="-.0988" width="1.0305" height="1.1976" color-interpolation-filters="sRGB"> <feGaussianBlur stdDeviation="0.060834416"/> </filter> <filter id="filter4890" x="-.043744" y="-.066583" width="1.0875" height="1.1332" color-interpolation-filters="sRGB"> <feGaussianBlur stdDeviation="0.030200403"/> </filter> <filter id="filter4926" x="-.054401" y="-.076543" width="1.1088" height="1.1531" color-interpolation-filters="sRGB"> <feGaussianBlur stdDeviation="0.03840703"/> </filter> <filter id="filter4940" x="-.020629" y="-.14122" width="1.0413" height="1.2824" color-interpolation-filters="sRGB"> <feGaussianBlur stdDeviation="0.87885172"/> </filter> <filter id="filter4948" x="-.015991" y="-.048085" width="1.032" height="1.0962" color-interpolation-filters="sRGB"> <feGaussianBlur stdDeviation="0.048389104"/> </filter> <filter id="filter4960" x="-.022253" y="-.040807" width="1.0445" height="1.0816" color-interpolation-filters="sRGB"> <feGaussianBlur stdDeviation="0.015766344"/> </filter> <filter id="filter4970" x="-.014634" y="-.066667" width="1.0293" height="1.1333" color-interpolation-filters="sRGB"> <feGaussianBlur stdDeviation="0.06717086"/> </filter> <linearGradient id="linearGradient4981" x1="412.89" x2="414.08" y1="763.73" y2="776.17" gradientUnits="userSpaceOnUse"> <stop stop-color="#aeb5c1" offset="0"/> <stop stop-color="#c9cdd6" offset="1"/> </linearGradient> <filter id="filter4989" x="-.02269" y="-.025471" width="1.0454" height="1.0509" color-interpolation-filters="sRGB"> <feGaussianBlur stdDeviation="0.12097878"/> </filter> <filter id="filter5000" x="-.1161" y="-.013383" width="1.2322" height="1.0268" color-interpolation-filters="sRGB"> <feGaussianBlur stdDeviation="0.063297985"/> </filter> <filter id="filter5017" x="-.027203" y="-.053206" width="1.0544" height="1.1064" color-interpolation-filters="sRGB"> <feGaussianBlur stdDeviation="0.30722352"/> </filter> <filter id="filter5028" x="-.030644" y="-.019724" width="1.0613" height="1.0394" color-interpolation-filters="sRGB"> <feGaussianBlur stdDeviation="0.064037867"/> </filter> <filter id="filter5028-9" x="-.030644" y="-.019724" width="1.0613" height="1.0394" color-interpolation-filters="sRGB"> <feGaussianBlur stdDeviation="0.064037867"/> </filter> <linearGradient id="linearGradient5124" x1="133.36" x2="128.25" y1="53.961" y2="54.229" gradientUnits="userSpaceOnUse"> <stop stop-color="#838d9e" offset="0"/> <stop stop-color="#b3b3b3" offset="1"/> </linearGradient> <linearGradient id="linearGradient5132" x1="144.19" x2="140.07" y1="53.961" y2="54.677" gradientUnits="userSpaceOnUse"> <stop stop-color="#838d9e" offset="0"/> <stop stop-color="#999" offset="1"/> </linearGradient> <filter id="filter5140" x="-.012464" y="-.3225" width="1.0249" height="1.645" color-interpolation-filters="sRGB"> <feGaussianBlur stdDeviation="0.13615803"/> </filter> <filter id="filter5140-2" x="-.012464" y="-.3225" width="1.0249" height="1.645" color-interpolation-filters="sRGB"> <feGaussianBlur stdDeviation="0.13615803"/> </filter> <filter id="filter5140-1" x="-.012464" y="-.3225" width="1.0249" height="1.645" color-interpolation-filters="sRGB"> <feGaussianBlur stdDeviation="0.13615803"/> </filter> <filter id="filter5140-6" x="-.012464" y="-.3225" width="1.0249" height="1.645" color-interpolation-filters="sRGB"> <feGaussianBlur stdDeviation="0.13615803"/> </filter> <filter id="filter5140-9" x="-.012464" y="-.3225" width="1.0249" height="1.645" color-interpolation-filters="sRGB"> <feGaussianBlur stdDeviation="0.13615803"/> </filter> <filter id="filter5140-12" x="-.012464" y="-.3225" width="1.0249" height="1.645" color-interpolation-filters="sRGB"> <feGaussianBlur stdDeviation="0.13615803"/> </filter> <filter id="filter5140-2-1" x="-.012464" y="-.3225" width="1.0249" height="1.645" color-interpolation-filters="sRGB"> <feGaussianBlur stdDeviation="0.13615803"/> </filter> <filter id="filter5140-1-6" x="-.012464" y="-.3225" width="1.0249" height="1.645" color-interpolation-filters="sRGB"> <feGaussianBlur stdDeviation="0.13615803"/> </filter> </defs> <g> <g> <path d="m125.35 203.45 9.5071-0.14202-0.13434 4.0684 0.50663-4.0019c1.3815 0.087 2.313 0.174 3.2266 0.261 0.87885-0.53906-0.14458 2.8121-0.0601 3.9942l0.75995-3.6731c1.5467 0.21291 5.478-0.20056 5.6363 0.75995l-0.44329 3.1031 0.7785-3.2036c1.5506 0.1872 2.5051-1.0208 2.6304 0.92053l-0.87574 3.043c0.4636-0.88661 0.38927-1.8442 1.3964-2.7308l0.8201 1.021c-1.4691 3.2672-2.1265 3.7565 0.40355 0.27055-1.8269-2.2711 0.22317 0.21859-1.3893-2.1461l-2.0777-0.71648-3.6898-0.55142-3.7179-0.42476-3.7998-0.34288-5.9312 0.23796z" fill="#8996a6" filter="url(#filter5017)"/> <path d="m98.622 190.52 39.049 1.9703c-9.0744-63.829-20.959-111.05-35.287-143.84z" fill="#c0c4cf" filter="url(#filter4622)" stroke="url(#linearGradient4516)" stroke-width=".465"/> <path d="m98.622 190.52 39.049 1.9703c-9.0744-63.829-20.959-111.05-35.287-143.84z" fill="#c0c4cf" filter="url(#filter4622)" stroke="url(#linearGradient4516)" stroke-width=".465"/> <path d="m99.671 161.14c1.8632-36.478 2.4759-72.955 2.6598-109.43 0 0 9.3911 48.297 7.2195 72.955-1.1051 12.549-9.8794 36.478-9.8794 36.478z" fill="#a5b4c7" filter="url(#filter4704)"/> <path d="m96.921 191.42c2.2379 4.6e-4 3.3409 0.10791 5.6954 0.0865 13.219-0.12011 23.006 0.43741 34.945 1.1565-0.43301-0.28228 0.0548-0.3274-0.34092-0.69975-3.5074-3.3005-10.887-5.5709-16.798-6.5682-4.2276-0.71325-15.532-3.2513-23.769-1.0504z" fill="#8a98ad" filter="url(#filter4675)"/> <path d="m100.68 43.095-6.5863 162.38 4.0531-0.25331 4.5597-159.59h1.0133l0.25331-1.2666z" fill="url(#linearGradient4505)"/> <path d="m64.768 201.09s1.212-1.57 4.2519-1.1901c3.0398 0.37998 1.2666 1.1399 4.9397 1.6466 3.6731 0.50663 5.4463 0.37997 8.4861 0.37997 3.0398 0 5.193-0.50663 7.5995-0.75995 2.4065-0.25332 2.2799 0.63329 4.3064-0.88661 2.0265-1.5199 1.8999-5.953 1.8999-7.0929s0.11122-25.463 0.36724-27.66c0.52837-4.5342 3.8125-113.44 3.8125-113.44s-2.5994 9.6937-3.7998 14.566c-2.5921 10.521-4.8647 21.117-7.3462 31.665-8.0658 34.282-24.517 102.77-24.517 102.77z" fill="#d6d6d8"/> <path d="m97.906 60.835s-26.988 117.89-31.307 139.11c0.56495-0.1113 1.2458-0.15279 2.0629-0.0506 3.0398 0.37997 1.2666 1.1398 4.9397 1.6464 3.6731 0.50663 5.4465 0.38034 8.4863 0.38034 0.32911 0 0.64315-9e-3 0.95292-0.0196l2.8639-10.31 8.4186-39.049-1.6118-31.705z" fill="url(#linearGradient4644)"/> <path d="m67.5 193.25c-1.5645 0.97804-1.9302 4.7942-2.0899 6.3963-0.05792 0.58099 1.1493 0.54322 1.7099 0.37997 0.57326-0.16693 0.69768-1.0854 1.2666-1.2666 0.95895-0.30549 2.3635 1.3049 2.9765 0.50663 0.33941-0.44204-0.55845-0.97999-0.69662-1.5199-0.07346-0.28704 0.14233-0.67333-0.06333-0.88661-0.54532-0.56553-1.7315 0.23967-2.3432-0.25332-0.4158-0.33512-0.54952-0.98759-0.50663-1.5199 0.04018-0.49883 0.84411-0.85171 0.69662-1.3299-0.10576-0.34293-0.64564-0.69686-0.94994-0.50663z" fill="#a4adbc"/> <path d="m102.33 182.55s9.8233-6.0595 13.172-6.2063c8.0439-0.35259 16.466 12.033 16.466 12.033l-22.165-4.5597z" fill="#cdcfdb" filter="url(#filter4689)"/> <path d="m63.574 204.96 1.2666 18.239 84.481-1.2666s1.1399-1.0133 1.6466-2.2799c0.50663-1.2666 0.88661-3.1665 0.63329-4.433-0.25332-1.2666-0.88661-4.0531-0.88661-4.0531l-1.6466-2.6598s-0.88661-1.0133-1.6466-1.2666c-0.75995-0.25332-2.6598-1.3932-2.6598-1.3932l-5.6996 0.12666-7.3462 1.0133-3.9264-3.1665-2.7865-2.4065-3.5464-0.25332c-6.8765 3.6919-14.506 1.7807-22.419 1.6466l-4.1797 1.5199-5.8263 0.50663-7.9795-0.63329-2.4065 0.63329-1.0133 0.50664z" fill="#93a3b8" filter="url(#filter4728)"/> <path transform="matrix(.26458 0 0 .26458 -1.1489 -.08145)" d="m247.67 818.9 0.47851 6.8965 2.3379 15.432-1.252 0.20899 0.0781 1.1367c0.54108 0.57337 1.2394 1.1698 1.9199 1.3105l1.5605-0.0234c4.6371-0.22428 46.777-2.9707 46.777-2.9707l117.02 0.51563 56.322-0.84571 13.168-0.68554 67.023-1.0156 10.814 0.33789h0.0176l3.082-0.0469c0.53079-0.0126 1.0918-0.0278 1.709-0.0488 0.0723-0.0645 4.3007-3.8474 6.1992-8.5938 0.26128-0.65321 0.51141-1.3558 0.75-2.0859-0.55423-0.59798-0.90821-1.0898-0.90821-1.4102 0-1.6878-325.29-8.0758-327.1-8.1113z" fill="#899aae" filter="url(#filter4724)"/> <path d="m62.244 201.29 1.8999 0.50663 0.50663 21.279-0.88661-0.12666z" fill="#c9d2df" filter="url(#filter4732)"/> <path d="m64.65 204.71-2.4698 0.25332-0.06333 4.0531-0.94994 0.18998v-4.2431l-0.25332-0.12666v-1.1399l3.0398-0.37998 1.2033 0.4433z" fill="#a7b1be"/> <path d="m71.754 209.33s25.59 2.3603 38.422 2.9555c13.093 0.60742 39.317 0.62693 39.317 0.62693s-26.455-0.69771-39.676-1.2538c-11.919-0.50141-23.218-1.9968-36.004-2.5973-0.69169-0.0325-2.0599 0.26869-2.0599 0.26869z" fill="#8191aa"/> <path transform="scale(.26458)" d="m566.22 792.62c0.40344-0.0807 4.9141 15.387 4.8242 23.561-0.1191 10.837-6.2427 23.095-6.5703 22.533 0.31588-0.28538 4.2718-3.9131 6.1113-8.5117 1.9148-4.7871 3.352-11.969 2.3945-16.756-0.95743-4.7871-1.3897-10.474-3.3516-15.318-0.81036-2.0012-3.4082-5.5078-3.4082-5.5078z" fill="#8b939e" filter="url(#filter4728)"/> </g> <a transform="translate(0,149)"> <path d="m100.31 57.901c10.632 0.78098 21.263 1.3891 31.895 0.67171l-3.3809-2.9079c-11.719 0.4681-29.194 0.21819-28.514 2.2362z" fill="#8495a7"/> </a> <g> <path transform="translate(0,149)" d="m78.993 57.095 21.763 2.3286-17.017-2.3286z" fill="#899aaf"/> <path transform="translate(0,149)" d="m80.492 56.932c3.1191-0.33851 6.5518 0.28062 9.5627 0.37998 1.1309 0.03732 2.1621-0.79173 3.2931-0.82328 1.0098-0.02817 1.9685 0.63686 2.9765 0.56996 0.46626-0.03095 0.86551-0.39152 1.3299-0.4433 0.63253-0.07053 1.2635 0.18186 1.8999 0.18999 0.93748 0.01197 0.37164 0.44474 2.9132-0.18999 0.40342-0.10075-0.75996-0.50663-1.1399-0.50663-0.37998 0-3.1075-0.6588-4.6864-0.69662-1.0604-0.0254-2.1074 0.25613-3.1665 0.31665-1.4544 0.08311-2.913 0.06861-4.3697 0.06333-0.97127-0.0035-1.9421-0.04395-2.9131-0.06333-1.161-0.02317-2.3234-0.12278-3.4831-0.06333-0.7008 0.03593-1.5928-0.24195-2.0899 0.25332-0.24114 0.24024-0.46506 1.05-0.12666 1.0133z" fill="#e6ecf5" filter="url(#filter4769)"/> <path transform="scale(.26458)" d="m315.89 773.47c-1.0968-5e-3 -2.1933 0.0141-3.2891 0.0703-0.14533 7e-3 -0.29991-9.9e-4 -0.44922 0l-0.39063 1.1719v3.2422c2.3258-2e-3 4.673 0.09 7.0234 0.22851l20.732 0.25196 6.7129-4.4316c-3.151 0.0414-6.3044 0.027-9.4551 0.0156-3.6709-0.0132-7.3395-0.16699-11.01-0.24023-3.291-0.0657-6.5845-0.2934-9.875-0.3086z" fill="#c9cdd6" filter="url(#filter4784)"/> <path transform="scale(.26458)" d="m448.31 758.58 0.23837 2.9908s-29.632 0.46434-39.791 0.61523l-6.1992 4.8223-17.904-0.30274 5.7324 5.1582 96.512 1.6524-3.916-3.1582-2.1934-1.8926-16.203-0.43164-5.0566-7.6934-0.48242-0.0352-2.8555-0.98828z" fill="url(#linearGradient4981)" filter="url(#filter4940)"/> <path transform="translate(0,149)" d="m100.19 53.576c-0.25331 0.25332-0.31664 0.82328-0.75995 1.2033-0.44331 0.37997-2.3432 0.50663-2.3432 0.50663s-1.8999 0.37998 0.50664 0.50664c2.4065 0.12666 1.3117 0.3753 2.8498 0 1.8651-0.1961 3.0464 0.23842 3.0398-0.50663 0-1.3299 0.50663-1.4566-0.31665-1.5832-0.82328-0.12666-2.9765-0.12666-2.9765-0.12666z" fill="#9fa7b8" filter="url(#filter4948)"/> <path transform="translate(0,149)" d="m110.29 52.753c0.68491-0.0748 1.169-0.10173 1.6624-0.03166 0.0819 0.34573 0.0127 0.66708-0.0316 0.88661-0.45717-0.02441-0.84428 0.02123-1.3774-0.07916-0.14917-0.1723-0.23082-0.43463-0.25334-0.77579z" fill="#dde3ef" filter="url(#filter4960)"/> <path transform="translate(0,149)" d="m117.82 51.718c0.62436-0.12547 0.89525-0.26326 1.1874 0.12669 0.0819 0.34574 0.0821 0.61542-0.12662 0.69662-0.42666 0.16601-0.93927 0.11619-1.4724 0.01579-0.0999-0.1329 0.0684 0.28923-0.0317-0.41165z" fill="#e8f0f8" filter="url(#filter4926)"/> <path transform="translate(0,149)" d="m111.23 54.498 11.016-0.98517-1.3434-1.433-8.4188 1.1643z" fill="#acb2be" filter="url(#filter4970)"/> <path transform="translate(0,149)" d="m119.05 53.228c0.71936-0.31546 0.95858-0.18409 1.4566 0.12669 0.0819 0.34574-0.0507 0.50877-0.095 0.72829-0.45717-0.0244-0.71762 0.11619-1.2508 0.01579-0.14917-0.1723-0.26248-0.10214-0.285-0.44331z" fill="#e8f0f8" filter="url(#filter4890)"/> <path transform="translate(0,149)" d="m111.17 42.635c-4.7271 4.0878-12.031 10.268-12.785 10.401l-8e-3 0.9979c4.8059-4.1455 13.002-10.455 12.793-11.399z" fill="#a3abb8" filter="url(#filter4989)"/> <path transform="translate(0,149)" d="m138.1 44.155-1.0894 11.351s0.77423-2.306 1.2986-8.5531c0.0647-0.7707-0.20919-2.798-0.20919-2.798z" fill="#969fb0" filter="url(#filter5000)"/> <path transform="translate(0,149)" d="m128.65 55.08c0.26869-0.44781 0.67171-2.7316 0.67171-2.7316 0.45799-0.17482 0.67129-0.3575 0.89561-0.76127-0.79639-0.17034-0.54649-1.9916 0.53737-2.0151 1.5048-0.03262 1.3942 2.4218 0.94039 2.1495l0.94039 1.3434 0.98518 4.2989-1.6121 0.35825-0.98518-0.62693z" fill="url(#linearGradient5124)" filter="url(#filter5028)"/> <path transform="translate(0,149)" d="m140.33 56.691c0.26869-0.44781 0.85083-3.7168 0.85083-3.7168 0.45799-0.17481 0.67129-0.35749 0.89561-0.76126-0.79639-0.17035-0.54649-1.9916 0.53737-2.0151 1.5048-0.0326 1.3942 2.4218 0.94039 2.1495l0.94039 1.3434c0.37301 3.2633 0.62643 3.3151-0.75358 3.1142-3.0576-0.27873-2.5194 0.26281-3.411-0.11393z" fill="url(#linearGradient5132)" filter="url(#filter5028-9)"/> </g> <g fill="#a1aab3"> <path transform="translate(0,149)" d="m127.67-16.403c-0.75995 0-25.838 1.0133-25.838 1.0133l26.218-0.12666z" filter="url(#filter5140)" opacity=".449"/> <path transform="translate(0,149)" d="m132.42 12.475c-0.75995 0-25.838 1.0133-25.838 1.0133l26.218-0.12666z" filter="url(#filter5140-2)"/> <path d="m120.39 104.73c-0.75995 0-15.326 0.50663-15.326 0.50663l15.706 0.37998z" filter="url(#filter5140-1)"/> <path transform="translate(0,149)" d="m115.7-62c-0.75995 0-9.4994 0.75995-9.4994 0.75995l9.8794 0.12666z" filter="url(#filter5140-6)"/> <path transform="translate(0,149)" d="m113.3-72.639c-0.75995 0-7.0929 0.50664-7.0929 0.50664l7.4729 0.37998z" filter="url(#filter5140-9)"/> </g> <g> <path transform="translate(0,149)" d="m132.8 20.835c-0.75995 0-30.905 0.50664-30.905 0.50664l31.285 0.37998z" fill="#ccc" filter="url(#filter5140-12)"/> <path transform="translate(0,149)" d="m129.26-3.4837c-0.75995 0-25.838 1.0133-25.838 1.0133l26.218-0.12666z" fill="#a1aab3" filter="url(#filter5140-2-1)"/> <path d="m122.73 118.47c-0.75995 0-15.326 0.50663-15.326 0.50663l15.706 0.37998z" fill="#a1aab3" filter="url(#filter5140-1-6)"/> </g> </g> </svg>